<?xml version="1.0" encoding="UTF-8" standalone="no"?>
<svg
   version="1.1"
   viewBox="0 0 165.92127 192"
   fill="none"
   stroke="none"
   stroke-linecap="square"
   stroke-miterlimit="10"
   id="svg44"
   sodipodi:docname="maicplus-logo-v1.svg"
   xml:space="preserve"
   inkscape:version="1.3.2 (091e20e, 2023-11-25)"
   width="43.900002mm"
   height="50.799999mm"
   xmlns:inkscape="http://www.inkscape.org/namespaces/inkscape"
   xmlns:sodipodi="http://sodipodi.sourceforge.net/DTD/sodipodi-0.dtd"
   xmlns="http://www.w3.org/2000/svg"
   xmlns:svg="http://www.w3.org/2000/svg"><defs
     id="defs44"><clipPath
       clipPathUnits="userSpaceOnUse"
       id="clipPath24"><rect
         style="fill:none;stroke:#000000;stroke-width:0.999999;stroke-linecap:butt;stroke-linejoin:bevel;paint-order:stroke markers fill;stop-color:#000000"
         id="rect24"
         width="44.999748"
         height="77.937294"
         x="251.53429"
         y="222.73541" /></clipPath><clipPath
       clipPathUnits="userSpaceOnUse"
       id="clipPath15"><rect
         style="fill:none;stroke:#000000;stroke-linecap:butt;stroke-linejoin:bevel;paint-order:stroke markers fill;stop-color:#000000"
         id="rect15-7"
         width="45.034248"
         height="38.955639"
         x="262.48285"
         y="121.00073" /></clipPath><rect
       x="700.10522"
       y="355.25363"
       width="56.898151"
       height="81.827385"
       id="rect55" /><inkscape:path-effect
       effect="spiro"
       id="path-effect55"
       is_visible="true"
       lpeversion="1" /><inkscape:path-effect
       effect="spiro"
       id="path-effect54"
       is_visible="true"
       lpeversion="1" /><inkscape:path-effect
       effect="spiro"
       id="path-effect53"
       is_visible="true"
       lpeversion="1" /><inkscape:path-effect
       effect="spiro"
       id="path-effect52"
       is_visible="true"
       lpeversion="1" /><inkscape:path-effect
       effect="spiro"
       id="path-effect51"
       is_visible="true"
       lpeversion="1" /><inkscape:path-effect
       effect="spiro"
       id="path-effect50"
       is_visible="true"
       lpeversion="1" /><inkscape:path-effect
       effect="spiro"
       id="path-effect49"
       is_visible="true"
       lpeversion="1" /><inkscape:path-effect
       effect="spiro"
       id="path-effect48"
       is_visible="true"
       lpeversion="1" /><inkscape:path-effect
       effect="spiro"
       id="path-effect47"
       is_visible="true"
       lpeversion="1" /><rect
       x="700.10522"
       y="355.25363"
       width="117.49325"
       height="44.282871"
       id="rect55-0" /><rect
       x="700.10522"
       y="355.25363"
       width="56.898151"
       height="81.827385"
       id="rect55-5" /></defs><sodipodi:namedview
     id="namedview44"
     pagecolor="#ffffff"
     bordercolor="#000000"
     borderopacity="0.25"
     inkscape:showpageshadow="2"
     inkscape:pageopacity="0.0"
     inkscape:pagecheckerboard="0"
     inkscape:deskcolor="#d1d1d1"
     inkscape:zoom="1.9528617"
     inkscape:cx="-89.612082"
     inkscape:cy="174.10347"
     inkscape:window-width="2560"
     inkscape:window-height="1321"
     inkscape:window-x="0"
     inkscape:window-y="25"
     inkscape:window-maximized="0"
     inkscape:current-layer="g45"
     inkscape:document-units="mm" /><clipPath
     id="g2f31eefca2f_0_7.0"><path
       d="M 0,0 H 1280 V 720 H 0 Z"
       clip-rule="nonzero"
       id="path1" /></clipPath><g
     clip-path="url(#g2f31eefca2f_0_7.0)"
     id="g44"
     transform="matrix(0.31414323,0,0,0.31414323,-108.99557,-15.233843)"><path
       stroke="#44546a"
       stroke-width="12"
       stroke-linejoin="round"
       stroke-linecap="butt"
       d="M 612,55.997375 870.15735,204.96457 V 502.99869 L 612,651.9659 353.84265,502.9987 V 204.96458 Z"
       fill-rule="evenodd"
       id="path4"
       style="fill:#f7f7f7;fill-opacity:1;stroke:#000000;stroke-opacity:1" /><path
       fill="#000000"
       d="m 426.86798,206.76273 h -8.70313 v 42.26563 h 9.25 v -32.07813 q 0.20313,-0.5 0.45313,-0.96875 0.25,-0.46875 0.60937,-0.78125 0.5,-0.46875 1.125,-0.70312 0.625,-0.23438 1.45313,-0.23438 0.73437,0 1.35937,0.20313 0.625,0.1875 1.09375,0.65625 0.4375,0.46875 0.67188,1.3125 0.23437,0.82812 0.23437,2.04687 v 30.54688 h 9.01563 v -31.29688 q 0,-0.39062 0,-0.64062 0,-0.25 0,-0.375 0.15625,-0.54688 0.45312,-0.96875 0.29688,-0.4375 0.71875,-0.78125 0.46875,-0.3125 1.04688,-0.5 0.59375,-0.20313 1.34375,-0.20313 0.73437,0 1.35937,0.20313 0.625,0.1875 1.09375,0.65625 0.46875,0.5 0.73438,1.34375 0.28125,0.84375 0.28125,2.04687 v 30.51563 h 9.26562 v -30.46875 q 0,-3.40625 -0.6875,-5.79688 -0.6875,-2.40625 -1.9375,-3.9375 -1.25,-1.48437 -2.9375,-2.15625 -1.67187,-0.6875 -3.625,-0.6875 -1.5625,0 -2.85937,0.39063 -1.28125,0.39062 -2.32813,1.09375 -0.82812,0.54687 -1.53125,1.3125 -0.70312,0.75 -1.25,1.6875 -0.34375,-0.96875 -0.85937,-1.73438 -0.5,-0.76562 -1.20313,-1.3125 -0.90625,-0.73437 -2.125,-1.07812 -1.20312,-0.35938 -2.71875,-0.35938 -3.01562,0 -5.14062,1.53125 -2.125,1.51563 -3.34375,4.125 z m 68.67969,42.26563 h 10.3125 v -0.67188 q -0.82813,-1.64062 -1.23438,-3.875 -0.40625,-2.25 -0.40625,-5.375 v -18.4375 q 0,-3.67187 -1.375,-6.42187 -1.35937,-2.76563 -3.70312,-4.59375 -2.42188,-1.84375 -5.67188,-2.75 -3.23437,-0.92188 -7.03125,-0.92188 -4.17187,0 -7.4375,1.07813 -3.26562,1.0625 -5.53125,2.90625 -2.26562,1.82812 -3.45312,4.20312 -1.1875,2.35938 -1.1875,4.96875 h 10.10937 q 0,-1.17187 0.39063,-2.15625 0.39062,-1 1.21875,-1.70312 0.85937,-0.78125 2.20312,-1.20313 1.34375,-0.4375 3.14063,-0.4375 2.03125,0 3.57812,0.51563 1.54688,0.5 2.59375,1.4375 1.01563,0.89062 1.51563,2.14062 0.51562,1.25 0.51562,2.85938 v 2.65625 h -6.4375 q -4.60937,0 -8.23437,0.84375 -3.60938,0.82812 -6.0625,2.46875 -2.70313,1.76562 -4.07813,4.46875 -1.35937,2.6875 -1.35937,6.20312 0,2.6875 1.07812,5.01563 1.07813,2.32812 3.03125,4 1.90625,1.6875 4.625,2.625 2.71875,0.9375 6,0.9375 1.98438,0 3.73438,-0.39063 1.76562,-0.39062 3.25,-1.0625 1.45312,-0.65625 2.65625,-1.53125 1.21875,-0.89062 2.15625,-1.90625 0.15625,1.17188 0.42187,2.25 0.28125,1.07813 0.67188,1.85938 z m -10.85938,-7.1875 q -1.64062,0 -2.89062,-0.40625 -1.25,-0.42188 -2.07813,-1.07813 -0.85937,-0.75 -1.29687,-1.78125 -0.42188,-1.03125 -0.42188,-2.25 0,-1.48437 0.5625,-2.73437 0.57813,-1.25 1.70313,-2.14063 1.25,-0.98437 3.23437,-1.48437 2,-0.51563 4.8125,-0.51563 h 5.78125 v 7.54688 q -0.5,0.89062 -1.39062,1.78125 -0.875,0.875 -2.07813,1.53125 -1.21875,0.70312 -2.70312,1.125 -1.48438,0.40625 -3.23438,0.40625 z m 34.67969,-35.07813 v 8.3125 h 12.54688 v 25.67188 h -12.54688 v 8.28125 h 34.6875 v -8.28125 h -11.95312 v -33.98438 z m 11.71875,-10.85937 q 0,1.32812 0.57813,2.42187 0.59375,1.09375 1.6875,1.67188 1.09375,0.625 2.25,0.73437 1.15625,0.0937 2.25,-0.29687 2.29687,-0.20313 3.5625,-1.64063 1.28125,-1.45312 1.15625,-3.5625 -0.10938,-2.14062 -1.625,-3.46875 -1.5,-1.32812 -4,-1.32812 -1.32813,0 -2.40625,0.39062 -1.0625,0.39063 -1.8125,1.09375 -0.78125,0.73438 -1.21875,1.75 -0.42188,1.01563 -0.42188,2.23438 z m 52.35156,45.8125 q -2.78125,0 -4.59375,-1.10938 -1.8125,-1.10937 -2.875,-2.95312 -1.125,-1.82813 -1.5625,-4.1875 -0.42187,-2.375 -0.42187,-4.90625 v -1.25 q 0,-2.5 0.4375,-4.85938 0.45312,-2.375 1.54687,-4.20312 1.09375,-1.84375 2.89063,-2.95313 1.79687,-1.10937 4.53125,-1.10937 1.875,0 3.4375,0.625 1.5625,0.625 2.70312,1.71875 1.09375,1.04687 1.6875,2.51562 0.60938,1.46875 0.57813,3.10938 h 9.53125 q 0.0312,-3.64063 -1.28125,-6.625 -1.29688,-2.98438 -3.6875,-5.09375 -2.375,-2.10938 -5.65625,-3.28125 -3.28125,-1.17188 -7.15625,-1.17188 -4.875,0 -8.54688,1.6875 -3.67187,1.67188 -6.14062,4.5625 -2.5,2.92188 -3.75,6.79688 -1.25,3.85937 -1.25,8.28125 v 1.25 q 0,4.40625 1.26562,8.28125 1.28125,3.85937 3.73438,6.75 2.46875,2.89062 6.15625,4.57812 3.6875,1.6875 8.57812,1.6875 3.59375,0 6.8125,-1.15625 3.21875,-1.15625 5.64063,-3.1875 2.46875,-2 3.89062,-4.75 1.42188,-2.75 1.39063,-5.95312 h -9.53125 q 0.0312,1.5625 -0.64063,2.82812 -0.65625,1.26563 -1.82812,2.17188 -1.17188,0.89062 -2.70313,1.40625 -1.51562,0.5 -3.1875,0.5 z m 29.57032,23.5625 h 10.07812 v -20 q 0.78125,0.8125 1.59375,1.5 0.82813,0.6875 1.76563,1.23437 1.5625,0.85938 3.39062,1.32813 1.84375,0.46875 4.03125,0.46875 3.98438,0 7.0625,-1.64063 3.09375,-1.64062 5.20313,-4.53125 2.0625,-2.85937 3.15625,-6.79687 1.09375,-3.95313 1.09375,-8.51563 v -0.85937 q 0,-4.76563 -1.09375,-8.73438 -1.09375,-3.96875 -3.20313,-6.8125 -2.10937,-2.8125 -5.20312,-4.375 -3.07813,-1.5625 -7.09375,-1.5625 -2.03125,0 -3.8125,0.4375 -1.78125,0.42188 -3.21875,1.20313 -1.17188,0.625 -2.1875,1.46875 -1.01563,0.82812 -1.875,1.92187 l -0.39063,-4.25 h -9.29687 z m 27.26562,-37.8125 v 0.8125 q 0,2.73437 -0.51562,5.15625 -0.5,2.42187 -1.59375,4.26562 -1.09375,1.82813 -2.85938,2.90625 -1.75,1.07813 -4.17187,1.07813 -1.53125,0 -2.79688,-0.32813 -1.26562,-0.34375 -2.20312,-0.92187 -0.98438,-0.625 -1.75,-1.48438 -0.75,-0.85937 -1.29688,-1.92187 v -18.20313 q 0.57813,-1.17187 1.39063,-2.03125 0.82812,-0.85937 1.89062,-1.48437 0.9375,-0.5 2.10938,-0.76563 1.17187,-0.28125 2.57812,-0.28125 2.45313,0 4.1875,1.01563 1.75,1.01562 2.875,2.8125 1.09375,1.79687 1.625,4.21875 0.53125,2.42187 0.53125,5.15625 z m 22.64844,-38.4375 v 8.3125 h 13.01562 v 43.40625 h -13.01562 v 8.28125 h 35.67187 v -8.28125 h -12.46875 v -51.71875 z m 73.60156,60 h 9.17187 v -42.26563 h -10.15625 v 29.79688 q -0.5,1.0625 -1.25,1.96875 -0.73437,0.89062 -1.67187,1.51562 -1.14063,0.73438 -2.64063,1.125 -1.5,0.39063 -3.375,0.39063 -1.95312,0 -3.32812,-0.46875 -1.35938,-0.46875 -2.26563,-1.64063 -0.85937,-1.09375 -1.26562,-2.96875 -0.40625,-1.875 -0.40625,-4.60937 v -25.10938 h -10.125 v 25.03125 q 0,4.76563 1.07812,8.1875 1.07813,3.42188 3.03125,5.60938 1.90625,2.21875 4.64063,3.25 2.73437,1.01562 6.01562,1.01562 3.71875,0 6.78125,-1.79687 3.0625,-1.8125 5.17188,-4.9375 z m 47.80469,-11.53125 q 0,0.98437 -0.46875,1.82812 -0.46875,0.82813 -1.35938,1.5 -1.0625,0.73438 -2.76562,1.17188 -1.6875,0.42187 -4,0.42187 -1.75,0 -3.45313,-0.34375 -1.70312,-0.35937 -3.0625,-1.17187 -1.32812,-0.78125 -2.1875,-2.0625 -0.85937,-1.29688 -1.01562,-3.14063 h -9.6875 q 0,2.625 1.26562,5.17188 1.26563,2.53125 3.6875,4.48437 2.42188,2.03125 6.01563,3.26563 3.59375,1.23437 8.28125,1.23437 4.1875,0 7.64062,-0.95312 3.45313,-0.96875 5.875,-2.65625 2.42188,-1.71875 3.75,-4.0625 1.32813,-2.34375 1.32813,-5.15625 0,-2.96875 -1.29688,-5.10938 -1.28125,-2.15625 -3.625,-3.71875 -2.29687,-1.51562 -5.54687,-2.51562 -3.23438,-1 -7.0625,-1.65625 -2.73438,-0.4375 -4.5,-0.98438 -1.75,-0.54687 -2.76563,-1.25 -1.0625,-0.65625 -1.46875,-1.5 -0.40625,-0.84375 -0.40625,-1.8125 0,-1.01562 0.48438,-1.90625 0.48437,-0.90625 1.39062,-1.57812 0.96875,-0.73438 2.51563,-1.14063 1.54687,-0.42187 3.60937,-0.42187 2.3125,0 3.98438,0.59375 1.6875,0.57812 2.73437,1.5625 0.82813,0.8125 1.25,1.8125 0.4375,1 0.4375,2.125 h 10.07813 q 0,-2.89063 -1.28125,-5.35938 -1.26563,-2.48437 -3.64063,-4.32812 -2.39062,-1.79688 -5.82812,-2.82813 -3.4375,-1.03125 -7.73438,-1.03125 -4.09375,0 -7.40625,1.03125 -3.29687,1.03125 -5.59375,2.82813 -2.3125,1.76562 -3.54687,4.10937 -1.21875,2.34375 -1.21875,4.95313 0,2.70312 1.20312,4.75 1.21875,2.04687 3.40625,3.57812 2.14063,1.5625 5.1875,2.67188 3.04688,1.10937 6.76563,1.85937 2.92187,0.54688 4.85937,1.14063 1.9375,0.57812 3.10938,1.23437 1.17187,0.70313 1.60937,1.51563 0.45313,0.79687 0.45313,1.84375 z"
       fill-rule="nonzero"
       id="path6"
       inkscape:label="maicplus" /><path
       stroke="#44546a"
       stroke-width="12"
       stroke-linejoin="round"
       stroke-linecap="butt"
       d="m 385.81965,479.47132 445.8253,26.92553"
       fill-rule="evenodd"
       id="path8"
       inkscape:label="board"
       style="fill:none;fill-opacity:1;stroke:#353535;stroke-opacity:1" /><path
       fill="#5b0f00"
       d="m 570.25865,534.73524 33.78069,-56.9776 33.7807,56.9776 z"
       fill-rule="evenodd"
       id="path9"
       inkscape:label="fulcrum"
       style="fill:#bc7b5c;fill-opacity:1;stroke:#bc7b5c;stroke-width:4.64;stroke-linecap:round;stroke-linejoin:round;stroke-dasharray:none;stroke-opacity:1" /><g
       id="g45"
       inkscape:label="page"
       transform="matrix(1.3111338,0,0,1.3190876,-256.03098,-147.02117)"><path
         fill="#ffffff"
         d="m 825.02844,490.01343 -130.45941,-7.55472 8.83405,-151.83514 25.02282,-22.27731 106.81238,6.18536 z"
         fill-rule="evenodd"
         id="path10" /><path
         fill="#cbcbcb"
         d="m 728.4259,308.34625 -5.83002,18.64349 -19.19281,3.63382 z"
         fill-rule="evenodd"
         id="path11" /><path
         fill="#000000"
         fill-opacity="0"
         d="m 728.4259,308.34625 -5.83002,18.64349 -19.19281,3.63382 25.02283,-22.27731 106.81238,6.18536 -10.20984,175.48181 -130.45941,-7.55471 8.83405,-151.83514"
         fill-rule="evenodd"
         id="path12" /><path
         stroke="#44546a"
         stroke-width="1"
         stroke-linejoin="round"
         stroke-linecap="butt"
         d="m 728.4259,308.34625 -5.83002,18.64349 -19.19281,3.63382 25.02283,-22.27731 106.81238,6.18536 -10.20984,175.48181 -130.45941,-7.55471 8.83405,-151.83514"
         fill-rule="evenodd"
         id="path13" /><path
         fill="#ffffff"
         d="m 710.63544,335.25162 115.89899,6.74322 -2.28491,39.27213 -115.89899,-6.74322 z"
         fill-rule="evenodd"
         id="path14" /><path
         fill="#000000"
         d="m 727.17425,353.42227 q -0.11336,1.94777 -0.73236,3.55408 -0.60266,1.60728 -1.68695,2.74309 -1.08338,1.11944 -2.66101,1.701 -1.57762,0.58157 -3.59088,0.46444 -1.96414,-0.11429 -3.40298,-0.78924 -1.42243,-0.674 -2.33976,-1.84414 -0.90092,-1.16921 -1.2996,-2.78545 -0.38133,-1.63168 -0.26329,-3.66131 0.11335,-1.94777 0.71596,-3.55505 0.60266,-1.60724 1.68605,-2.72668 1.10068,-1.13489 2.66101,-1.70102 1.56124,-0.58252 3.60721,-0.46349 1.96415,0.1143 3.38659,0.7883 1.4225,0.67399 2.33983,1.84415 0.91732,1.17013 1.29864,2.80182 0.39867,1.61624 0.28154,3.6295 z m -3.08864,0.0174 q 0.0752,-1.29308 -0.10367,-2.45312 -0.17785,-1.17638 -0.68393,-2.07629 -0.48962,-0.8989 -1.39312,-1.46056 -0.90341,-0.56172 -2.31107,-0.64361 -1.29306,-0.0752 -2.25266,0.32879 -0.95965,0.40403 -1.61476,1.21989 -0.63783,0.8005 -1.00007,1.94547 -0.36127,1.12861 -0.44031,2.48713 -0.0762,1.30943 0.0853,2.48489 0.17888,1.16004 0.6849,2.05992 0.50697,0.88351 1.41047,1.4452 0.91981,0.56264 2.32745,0.64452 1.27668,0.0743 2.23628,-0.32973 0.95965,-0.404 1.61387,-1.20354 0.65416,-0.79953 0.99904,-1.92911 0.36224,-1.14496 0.44223,-2.51985 z m 17.11063,-5.98437 q -0.0229,0.39282 -0.0544,0.65376 -0.0316,0.26092 -0.0901,0.42174 -0.0578,0.14445 -0.14429,0.22154 -0.0866,0.0771 -0.2339,0.0686 -0.13097,-0.008 -0.33899,-0.10188 -0.19169,-0.0933 -0.44877,-0.19035 -0.25714,-0.0971 -0.58069,-0.1816 -0.3062,-0.0999 -0.66632,-0.12088 -0.44192,-0.0257 -0.87794,0.1296 -0.43609,0.15526 -0.93455,0.53686 -0.49846,0.38158 -1.06129,1.02218 -0.54643,0.64158 -1.22557,1.58746 l -0.61041,10.49181 q -0.009,0.14731 -0.0798,0.2417 -0.0711,0.0944 -0.23863,0.15035 -0.16748,0.0559 -0.44768,0.0725 -0.28013,0.0166 -0.72204,-0.01 -0.42559,-0.0247 -0.71833,-0.0746 -0.27636,-0.0489 -0.45254,-0.12489 -0.15993,-0.075 -0.21968,-0.17702 -0.0433,-0.10105 -0.0348,-0.24837 l 0.92847,-15.95866 q 0.008,-0.13095 0.0624,-0.22631 0.0548,-0.0953 0.22327,-0.16767 0.16843,-0.0723 0.41495,-0.0744 0.2474,-0.0184 0.65658,0.005 0.39286,0.0229 0.63642,0.0699 0.26099,0.0316 0.38716,0.12108 0.14257,0.0904 0.20231,0.19242 0.0597,0.10199 0.0521,0.23296 l -0.13525,2.32423 q 0.70993,-0.91123 1.31805,-1.48351 0.6245,-0.57134 1.15191,-0.88555 0.5274,-0.31421 1.0424,-0.41562 0.51601,-0.11778 1.02338,-0.0882 0.24555,0.0142 0.52189,0.0632 0.29269,0.0498 0.59992,0.13343 0.32349,0.0845 0.57968,0.19796 0.25714,0.0971 0.34962,0.20098 0.10984,0.0884 0.13782,0.17226 0.0279,0.0837 0.0368,0.21562 0.0261,0.1165 0.0117,0.36202 0.003,0.23012 -0.0208,0.63931 z m 13.7442,15.77768 q -0.0124,0.21278 -0.16638,0.31878 -0.13667,0.0906 -0.40137,0.12447 -0.24844,0.0348 -0.72307,0.008 -0.45831,-0.0266 -0.7337,-0.0919 -0.2754,-0.0653 -0.4006,-0.17109 -0.10793,-0.12127 -0.0956,-0.33403 l 0.0923,-1.58768 q -1.11225,1.05204 -2.44152,1.59879 -1.31286,0.54772 -2.7369,0.46483 -1.26028,-0.0733 -2.27245,-0.46066 -0.99578,-0.38639 -1.67978,-1.05028 -0.68394,-0.66387 -1.0244,-1.58698 -0.3395,-0.93944 -0.27283,-2.08521 0.0781,-1.34217 0.67632,-2.30918 0.61456,-0.96606 1.66747,-1.56172 1.06931,-0.59472 2.57782,-0.83543 1.50852,-0.24068 3.37442,-0.13213 l 2.19328,0.12762 0.0724,-1.24396 q 0.0533,-0.91661 -0.1022,-1.63187 -0.13816,-0.73065 -0.55342,-1.21464 -0.4143,-0.5004 -1.08845,-0.76954 -0.67318,-0.2855 -1.68797,-0.34455 -1.08025,-0.0628 -1.96298,0.14854 -0.86545,0.19601 -1.53824,0.46892 -0.65646,0.27385 -1.11362,0.51002 -0.43986,0.22077 -0.65262,0.20837 -0.1473,-0.009 -0.2581,-0.0807 -0.0944,-0.0711 -0.16767,-0.22327 -0.0569,-0.15111 -0.0936,-0.36675 -0.0194,-0.23107 -0.004,-0.49295 0.0257,-0.44194 0.10548,-0.68365 0.0807,-0.25807 0.32318,-0.47387 0.25983,-0.23124 0.86717,-0.50794 0.60734,-0.27671 1.37453,-0.47842 0.78455,-0.21714 1.69425,-0.32845 0.91072,-0.12764 1.84374,-0.0733 1.71858,0.1 2.8906,0.56235 1.18836,0.46327 1.88114,1.25907 0.70911,0.79673 0.97074,1.94515 0.27898,1.13301 0.19232,2.62249 z m -2.48975,-7.4532 -2.4879,-0.14477 q -1.21122,-0.0704 -2.10746,0.0909 -0.89529,0.145 -1.50833,0.51992 -0.61214,0.35856 -0.92277,0.89886 -0.29421,0.54129 -0.33617,1.26144 -0.0724,1.24398 0.67043,2.02623 0.74285,0.78228 2.16684,0.86512 1.14577,0.0666 2.1621,-0.46544 1.01633,-0.53209 2.16614,-1.66408 z m 21.59903,8.54858 q -0.009,0.14735 -0.0961,0.24079 -0.0711,0.0943 -0.23863,0.15035 -0.15114,0.0569 -0.44767,0.0725 -0.28014,0.0165 -0.70571,-0.009 -0.44192,-0.0257 -0.73466,-0.0755 -0.27636,-0.0489 -0.43621,-0.12389 -0.14353,-0.0741 -0.21961,-0.17702 -0.0599,-0.102 -0.0512,-0.24933 l 0.54381,-9.34604 q 0.0791,-1.35856 -0.0852,-2.20569 -0.1642,-0.84715 -0.53817,-1.47657 -0.35763,-0.62846 -0.99423,-0.97755 -0.63565,-0.36544 -1.48681,-0.41497 -1.09664,-0.0638 -2.23896,0.65806 -1.14237,0.72185 -2.4412,2.15723 l -0.64852,11.14652 q -0.009,0.1473 -0.0798,0.24171 -0.0711,0.0944 -0.23864,0.15034 -0.16748,0.0559 -0.44768,0.0725 -0.28013,0.0166 -0.72204,-0.01 -0.42559,-0.0247 -0.71833,-0.0746 -0.27635,-0.0489 -0.45254,-0.12488 -0.15993,-0.075 -0.21967,-0.17699 -0.0434,-0.10105 -0.0348,-0.24839 l 0.92846,-15.95868 q 0.008,-0.13094 0.0624,-0.22627 0.0548,-0.0954 0.22327,-0.16768 0.16843,-0.0723 0.41495,-0.0744 0.2474,-0.0185 0.65659,0.005 0.39285,0.0229 0.63642,0.0699 0.26097,0.0316 0.38714,0.12104 0.14257,0.0904 0.20232,0.19242 0.0598,0.102 0.0521,0.23297 l -0.12285,2.11148 q 1.42975,-1.42776 2.81285,-2.05348 1.38313,-0.62576 2.74166,-0.5467 1.60407,0.0933 2.65198,0.71267 1.0652,0.60394 1.68394,1.54323 0.61868,0.93928 0.84283,2.16764 0.22416,1.22838 0.12508,2.93064 z m 19.55024,-14.13616 q -0.0362,0.62196 -0.21609,0.8907 -0.17888,0.25238 -0.45716,0.23618 l -2.27514,-0.13239 q 0.56848,0.67359 0.76925,1.45719 0.21711,0.78452 0.16857,1.61928 -0.0809,1.39126 -0.58479,2.42946 -0.50386,1.0382 -1.38146,1.72618 -0.86121,0.68892 -2.02985,1.01511 -1.15127,0.31075 -2.52619,0.23075 -0.98208,-0.0571 -1.85168,-0.35407 -0.85225,-0.31238 -1.30402,-0.7328 -0.34546,0.29195 -0.58203,0.68874 -0.22026,0.39779 -0.2517,0.93791 -0.0362,0.622 0.51293,1.06451 0.56635,0.42714 1.51281,0.53145 l 4.16434,0.40653 q 1.17562,0.11767 2.15691,0.47039 0.98227,0.33632 1.671,0.91837 0.68875,0.58204 1.05131,1.40788 0.36345,0.80946 0.30255,1.85701 -0.0638,1.09666 -0.57929,2.05205 -0.5164,0.97179 -1.50948,1.66945 -0.99314,0.69772 -2.49104,1.03757 -1.49885,0.35623 -3.49571,0.24004 -1.93141,-0.11236 -3.27091,-0.51876 -1.33945,-0.4064 -2.17363,-1.02975 -0.83515,-0.60699 -1.18227,-1.4155 -0.34706,-0.80853 -0.29282,-1.74148 0.0343,-0.58925 0.21398,-1.13718 0.17874,-0.53158 0.48559,-1.00641 0.32316,-0.4739 0.79178,-0.9065 0.46855,-0.43258 1.05079,-0.84212 -0.8418,-0.49242 -1.22832,-1.18827 -0.37012,-0.69488 -0.32445,-1.48056 0.0628,-1.08028 0.5543,-1.9057 0.4915,-0.82541 1.18522,-1.4584 -0.50204,-0.68614 -0.7818,-1.52358 -0.26239,-0.85285 -0.19475,-2.01498 0.08,-1.37489 0.60112,-2.4285 0.52115,-1.05364 1.38242,-1.74256 0.86217,-0.7053 2.03081,-1.03148 1.16856,-0.32616 2.51076,-0.24808 0.72018,0.0418 1.3374,0.15995 0.63455,0.10262 1.18245,0.28228 l 4.81217,0.28 q 0.31101,0.0181 0.4412,0.32128 0.13014,0.30319 0.0948,0.90881 z m -4.81044,3.92446 q 0.0943,-1.62041 -0.75265,-2.58938 -0.84687,-0.96897 -2.48368,-1.06421 -0.85109,-0.0496 -1.5066,0.20796 -0.63819,0.24205 -1.09228,0.70834 -0.43782,0.46724 -0.68868,1.10955 -0.23357,0.62694 -0.27545,1.34713 -0.0914,1.57131 0.73914,2.53932 0.84784,0.95261 2.46824,1.04691 0.86748,0.0505 1.52203,-0.19066 0.65454,-0.2411 1.09139,-0.69197 0.45409,-0.46628 0.68765,-1.09319 0.24991,-0.62597 0.29089,-1.3298 z m 0.73794,12.72173 q 0.0591,-1.01482 -0.75971,-1.62086 -0.80146,-0.62142 -2.23991,-0.73798 l -4.11708,-0.37092 q -0.59863,0.40861 -0.98156,0.78049 -0.38293,0.37187 -0.61669,0.71958 -0.23466,0.36409 -0.33649,0.70305 -0.10284,0.35532 -0.12469,0.73178 -0.0666,1.14577 1.06116,1.80261 1.14327,0.67417 3.23831,0.79609 1.3258,0.0771 2.22493,-0.13331 0.91546,-0.20952 1.48035,-0.60366 0.58126,-0.39318 0.85915,-0.93541 0.277,-0.52584 0.31223,-1.13146 z m 20.75677,-9.10616 q -0.0411,0.70383 -0.40182,0.97845 -0.35993,0.25823 -0.80184,0.23251 l -10.45909,-0.60851 q -0.0781,1.34215 0.12189,2.42131 0.2173,1.06374 0.77813,1.86826 0.57724,0.80547 1.55189,1.27277 0.9756,0.45092 2.39958,0.53379 1.14576,0.0666 2.04009,-0.0621 0.89433,-0.12863 1.54605,-0.32064 0.66806,-0.19105 1.08768,-0.34729 0.43698,-0.17167 0.6498,-0.15928 0.13091,0.008 0.22531,0.0788 0.0954,0.0549 0.13687,0.18861 0.0415,0.13378 0.0445,0.36391 0.0203,0.21467 0.002,0.52568 -0.0134,0.22912 -0.0402,0.40823 -0.0259,0.16273 -0.0662,0.29175 -0.0241,0.13 -0.0961,0.24077 -0.0712,0.0944 -0.1751,0.18689 -0.104,0.0924 -0.59197,0.29404 -0.487,0.18515 -1.26867,0.35317 -0.76534,0.16899 -1.78968,0.27363 -1.0089,0.12194 -2.13827,0.0562 -1.96414,-0.11429 -3.42124,-0.75744 -1.44075,-0.64224 -2.39272,-1.78154 -0.93557,-1.13837 -1.36506,-2.78926 -0.41219,-1.66633 -0.28647,-3.8269 0.12003,-2.06234 0.73901,-3.66866 0.63533,-1.60535 1.70047,-2.693 1.06507,-1.08768 2.50794,-1.61137 1.46023,-0.53914 3.22795,-0.43629 1.86595,0.10856 3.15652,0.79131 1.29057,0.68277 2.08167,1.76346 0.7921,1.0643 1.10496,2.46205 0.3128,1.39778 0.22237,2.95271 z m -2.8794,-1.03798 q 0.18336,-2.30501 -0.82067,-3.67727 -0.98778,-1.37135 -3.09922,-1.49418 -1.08031,-0.0628 -1.9225,0.29871 -0.8422,0.36159 -1.43776,1.00028 -0.57916,0.63966 -0.94254,1.52181 -0.347,0.88308 -0.4359,1.8469 z m 17.10582,6.21786 q -0.0706,1.21122 -0.58499,2.15028 -0.51351,0.92266 -1.38639,1.52883 -0.85648,0.60707 -2.03862,0.88317 -1.16574,0.27709 -2.557,0.19614 -0.8511,-0.0495 -1.61182,-0.2416 -0.76169,-0.17568 -1.37223,-0.4083 -0.59326,-0.24801 -1.00642,-0.48555 -0.41225,-0.2539 -0.59914,-0.42904 -0.16959,-0.1905 -0.24971,-0.50721 -0.0627,-0.33214 -0.0304,-0.88862 0.019,-0.32738 0.065,-0.55461 0.047,-0.24362 0.10378,-0.37172 0.0741,-0.14349 0.15972,-0.2042 0.10199,-0.0597 0.23293,-0.0521 0.19643,0.0115 0.5586,0.27886 0.37851,0.26837 0.91887,0.57901 0.54028,0.31061 1.27892,0.59993 0.75502,0.29028 1.75348,0.34838 0.73652,0.043 1.35168,-0.0856 0.61515,-0.12848 1.07518,-0.41373 0.45998,-0.28529 0.7168,-0.7466 0.27308,-0.46039 0.31119,-1.11513 0.039,-0.67106 -0.27801,-1.14938 -0.31613,-0.49466 -0.86897,-0.87172 -0.53555,-0.39247 -1.23959,-0.71263 -0.6876,-0.3192 -1.42341,-0.65761 -0.73479,-0.35482 -1.43307,-0.77316 -0.69829,-0.41837 -1.23972,-0.99184 -0.52415,-0.58889 -0.82407,-1.36182 -0.29897,-0.78929 -0.2371,-1.85317 0.0553,-0.94935 0.46484,-1.77954 0.4106,-0.84655 1.16793,-1.44299 0.77462,-0.61186 1.8778,-0.94182 1.1195,-0.32903 2.57622,-0.24427 0.63833,0.0371 1.27001,0.18884 0.63264,0.13536 1.13053,0.32854 0.51428,0.19416 0.86294,0.41153 0.34962,0.20101 0.52108,0.35878 0.1888,0.14237 0.23119,0.25979 0.0597,0.102 0.0849,0.23487 0.0251,0.13286 0.03,0.33022 0.0213,0.19831 0.005,0.47659 -0.0181,0.31096 -0.0642,0.53823 -0.0287,0.21182 -0.10283,0.35532 -0.0731,0.12713 -0.1751,0.18688 -0.0856,0.0607 -0.18388,0.055 -0.16363,-0.01 -0.46323,-0.22404 -0.28322,-0.21355 -0.74548,-0.45395 -0.46133,-0.25678 -1.1046,-0.49129 -0.62694,-0.23353 -1.4617,-0.28212 -0.75292,-0.0437 -1.33624,0.10294 -0.56604,0.13129 -0.96062,0.42036 -0.37818,0.29006 -0.583,0.70513 -0.20482,0.41512 -0.23337,0.90614 -0.04,0.68744 0.27609,1.18213 0.33253,0.4956 0.86807,0.88807 0.55284,0.37708 1.25593,0.71359 0.72038,0.32109 1.45613,0.65954 0.73575,0.33842 1.45043,0.75771 0.71467,0.41935 1.23972,0.99185 0.5424,0.55712 0.84232,1.33002 0.31728,0.75753 0.25727,1.78869 z"
         fill-rule="nonzero"
         id="path15"
         style="stroke-width:1.04932" /><path
         fill="#ffffff"
         d="m 709.7143,405.7742 109.16058,6.37787 -2.95654,50.81604 -109.16065,-6.37787 z"
         fill-rule="evenodd"
         id="path16" /><path
         stroke="#44546a"
         stroke-width="1"
         stroke-linejoin="round"
         stroke-linecap="butt"
         d="m 708.54337,420.25358 109.16058,6.37787 -2.95654,50.81604 -109.16065,-6.37787 z"
         fill-rule="evenodd"
         id="path17" /><path
         fill="#000000"
         fill-opacity="0"
         d="m 715.0716,410.22815 c -0.1098,1.88742 1.60443,3.67108 3.13525,5.10019 3.33735,3.1156 -0.15795,8.57065 2.09455,12.28754 4.24865,7.0108 13.37762,11.21435 20.91382,15.9739 5.69787,3.59854 13.75042,3.08368 20.6416,4.5709 14.9198,3.21991 30.17358,5.6452 45.49164,6.54016"
         fill-rule="evenodd"
         id="path18" /><path
         stroke="#ff0000"
         stroke-width="1"
         stroke-linejoin="round"
         stroke-linecap="butt"
         d="m 713.90067,424.70753 c -0.1098,1.88742 1.60443,3.67108 3.13525,5.10019 3.33735,3.1156 -0.15795,8.57065 2.09455,12.28754 4.24865,7.0108 13.37762,11.21435 20.91382,15.9739 5.69787,3.59854 13.75042,3.08368 20.6416,4.5709 14.9198,3.21991 30.17358,5.6452 45.49164,6.54016"
         fill-rule="evenodd"
         id="path19" /><path
         fill="#000000"
         fill-opacity="0"
         d="m 715.66327,410.78018 c 9.75421,-0.77139 15.35748,10.45068 23.12201,15.58655 6.42145,4.2475 15.62335,4.5354 23.73621,5.0094 4.1983,0.24527 2.3684,7.93539 6.33172,9.17019 4.50269,1.40287 9.55091,0.29935 14.32056,0.57801 7.81897,0.45685 15.38556,2.96942 23.20453,3.42624"
         fill-rule="evenodd"
         id="path20" /><path
         stroke="#000000"
         stroke-width="1"
         stroke-linejoin="round"
         stroke-linecap="butt"
         d="m 714.49234,425.25956 c 9.75421,-0.77139 15.35748,10.45068 23.12201,15.58655 6.42145,4.2475 15.62335,4.5354 23.73621,5.0094 4.1983,0.24527 2.3684,7.93539 6.33172,9.17019 4.50269,1.40287 9.55091,0.29935 14.32056,0.57801 7.81897,0.45685 15.38556,2.96942 23.20453,3.42624"
         fill-rule="evenodd"
         id="path21" /><text
         xml:space="preserve"
         transform="matrix(0.91388222,0.04843374,-0.04843374,0.91388222,88.607092,16.945522)"
         id="text55"
         style="font-size:2.66667px;text-align:justify;white-space:pre;shape-inside:url(#rect55);display:inline;fill:#754630;fill-opacity:1;stroke:none;stroke-width:0.1;stroke-dasharray:none;stroke-opacity:1"><tspan
           x="700.10547"
           y="357.68679"
           id="tspan2"><tspan
             dx="0 0 0 0 0 0 0 2.1846235 0 0 2.1846244 0 0 0 2.1846225 0 0 2.1846225 0 0 0 2.1846225"
             style="fill:#353535"
             id="tspan1">Orange is one of the distinguished </tspan></tspan><tspan
           x="700.10547"
           y="361.02013"
           id="tspan4"><tspan
             dx="0 0 0 0 0 0 0 0 1.3216016 0 0 1.3216007 0 0 0 0 0 0 1.3216026 0 0 0 0 0 0 0 0 0 1.3216007 0 0 1.3216007"
             style="fill:#353535"
             id="tspan3">members of fruits belonging to Citrus </tspan></tspan><tspan
           x="700.10547"
           y="364.35348"
           id="tspan6"><tspan
             dx="0 0 0 0 0 0 0 0 0 0.24477744 0 0 0 0 0 0.24477839 0 0 0 0.24477649 0 0 0.24477649 0 0 0 0 0 0 0 0 0 0 0 0.2447803"
             style="fill:#353535"
             id="tspan5">cinensis (L.), and is extensively produced </tspan></tspan><tspan
           x="700.10547"
           y="367.68682"
           id="tspan8"><tspan
             dx="0 0 0 1.6510293 0 0 0 0 0 0 0 1.6510293 0 0 0 0 0 0 1.6510284 0 0 0 0 0 0 0 1.6510303 0 0 0 0 0 0 0 1.6510303"
             style="fill:#353535"
             id="tspan7">in Brazil, United States, Mexico, and </tspan></tspan><tspan
           x="700.10547"
           y="371.02016"
           id="tspan10"><tspan
             dx="0 0 0 0 0 0 0 0.88866019 0 0 0 0.88866115 0 0 0 0 0.88866115 0 0 0.88866115 0 0 0 0 0 0 0.88865924 0 0 0 0 0 0 0.88865924"
             style="fill:#353535"
             id="tspan9">China, and less in Spain, Italy, Turkey, </tspan></tspan><tspan
           x="700.10547"
           y="374.35351"
           id="tspan12"><tspan
             dx="0 0 0 0 0 0 0 0.73488212 0 0 0 0 0 0 0.73488116 0 0 0 0.73488307 0 0 0 0 0 0 0 0.73488498 0 0 0 0.73488498"
             style="fill:#353535"
             id="tspan11">India, Egypt, and Greece, who together </tspan></tspan><tspan
           x="700.10547"
           y="377.68685"
           id="tspan14"><tspan
             dx="0 0 0 0 0 0 0 0 0 0.91969371 0 0 0 0 0.91969371 0 0 0 0 0.91969371 0 0 0.9196918 0 0 0 0 0 0 0 0.9196918 0 0 0 0 0.91969562"
             style="fill:#353535"
             id="tspan13">produced more than 68 million tons in </tspan></tspan><tspan
           x="700.10547"
           y="381.02019"
           id="tspan16"><tspan
             dx="0 0 0 0 0 0 0.20516133 0 0 0.20516086 0 0 0.20516086 0 0 0 0 0 0 0 0 0 0 0.20516086 0 0 0 0 0.20516086 0 0 0 0 0 0 0.20516086 0 0 0.20516086"
             style="fill:#353535"
             id="tspan15">2015. It is well-known that orange is one </tspan></tspan><tspan
           x="700.10547"
           y="384.35354"
           id="tspan18"><tspan
             dx="0 0 0 0.39451957 0 0 0 0.39451957 0 0 0 0 0.39452052 0 0 0 0 0 0 0 0 0.39452052 0 0 0 0 0 0 0 0.39451861 0 0 0.39451861"
             style="fill:#353535"
             id="tspan17">of the most abundant sources of vitamin </tspan></tspan><tspan
           x="700.10547"
           y="387.68688"
           id="tspan20"><tspan
             style="fill:#353535"
             id="tspan19">C, however, it also contains considerable </tspan></tspan></text><text
         xml:space="preserve"
         transform="matrix(0.91353341,0.0546193,-0.0546193,0.91353341,151.48439,15.637782)"
         id="text55-7"
         style="font-size:2.66667px;text-align:justify;white-space:pre;shape-inside:url(#rect55-5);display:inline;fill:#754630;fill-opacity:1;stroke:none;stroke-width:0.1;stroke-dasharray:none;stroke-opacity:1"><tspan
           x="700.10547"
           y="357.68679"
           id="tspan24"><tspan
             dx="0 0 0 0 0 0 0 0 5.1284552 0 0 5.1284552 0 0 0 0 0 0 5.1284513"
             style="fill:#353535"
             id="tspan23">amounts of sugar, carotenoids, </tspan></tspan><tspan
           x="700.10547"
           y="361.02013"
           id="tspan26"><tspan
             dx="0 0 0 0 0 0 0 0 0 0 0 0 2.3313653 0 0 0 0 0 0 0 0 0 2.3313663 0 0 0 0 0 2.3313625 0 0 0 2.3313663"
             style="fill:#353535"
             id="tspan25">flavonoids, essential oils, and some </tspan></tspan><tspan
           x="700.10547"
           y="364.35348"
           id="tspan28"><tspan
             dx="0 0 0 0 0 0 0 0 0 0 0.49477839 0 0 0 0 0 0.49477839 0 0 0.49477839 0 0 0 0 0 0 0 0 0 0.49477649 0 0 0 0 0 0 0 0 0.49477649"
             style="fill:#353535"
             id="tspan27">minerals. There is extensive research on </tspan></tspan><tspan
           x="700.10547"
           y="367.68682"
           id="tspan30"><tspan
             dx="0 0 0 0 0.77863193 0 0 0 0 0 0 0 0 0 0.77863193 0 0 0 0 0 0 0 0 0 0.77863193 0 0 0.77863193 0 0 0 0 0 0 0.77863193"
             style="fill:#353535"
             id="tspan29">the bioactive compounds of orange and </tspan></tspan><tspan
           x="700.10547"
           y="371.02016"
           id="tspan32"><tspan
             dx="0 0 0 0 0 0 0 0.30076957 0 0 0 0 0 0 0.30076861 0 0 0 0.30077052 0 0 0 0 0.30076861 0 0 0 0 0 0 0.30076861 0 0 0 0 0 0.30076861"
             style="fill:#353535"
             id="tspan31">orange juices and even orange peels due </tspan></tspan><tspan
           x="700.10547"
           y="374.35351"
           id="tspan34"><tspan
             dx="0 0 0 0.34076381 0 0 0 0 0 0 0.34076381 0 0 0 0 0 0 0 0 0.34076381 0 0 0 0 0.34076571 0 0 0.34076571 0 0.34076571 0 0 0 0 0 0 0 0.34076571"
             style="fill:#353535"
             id="tspan33">to health benefits such as a reduced risk </tspan></tspan><tspan
           x="700.10547"
           y="377.68685"
           id="tspan36"><tspan
             dx="0 0 0 0.7900219 0 0 0 0 0.79002166 0 0 0 0 0 0 0 0 0 0 0 0 0 0 0 0.79002261 0 0 0 0 0 0 0 0 0 0.79002261"
             style="fill:#353535"
             id="tspan35">of free radical-related oxidative damage </tspan></tspan><tspan
           x="700.10547"
           y="381.02019"
           id="tspan38"><tspan
             dx="0 0 0 0 0.83800721 0 0 0 0 0 0 0 0 0.83800769 0 0 0 0 0 0 0 0 0 0 0.83800769 0 0 0 0 0 0.83800769 0 0 0.83800769"
             style="fill:#353535"
             id="tspan37">and diseases (different types of cancer, </tspan></tspan><tspan
           x="700.10547"
           y="384.35354"
           id="tspan40"><tspan
             dx="0 0 0 0 0 0 0 0 0 0 0 0 0 0 0 1.2156894 0 0 1.2156894 0 0 0 0 0 0 0 0 0 0 0 0 1.2156856"
             style="fill:#353535"
             id="tspan39">cardiovascular or neurological diseases, </tspan></tspan><tspan
           x="700.10547"
           y="387.68688"
           id="tspan42"><tspan
             style="fill:#353535"
             id="tspan41">etc.).</tspan></tspan></text></g><defs
       id="defs21"><filter
         id="shadowFilter-g2f31eefca2f_0_7.1"
         filterUnits="userSpaceOnUse"><feGaussianBlur
           in="SourceAlpha"
           stdDeviation="2.0"
           result="blur"
           id="feGaussianBlur21" /><feComponentTransfer
           in="blur"
           color-interpolation-filters="sRGB"
           id="feComponentTransfer21"><feFuncR
             type="linear"
             slope="0"
             intercept="0.0"
             id="feFuncR21" /><feFuncG
             type="linear"
             slope="0"
             intercept="0.0"
             id="feFuncG21" /><feFuncB
             type="linear"
             slope="0"
             intercept="0.0"
             id="feFuncB21" /><feFuncA
             type="linear"
             slope="0.16"
             intercept="0"
             id="feFuncA21" /></feComponentTransfer></filter></defs><g
       id="g2f31eefca2f_0_7.1" /><g
       id="g46"
       transform="matrix(0.1963097,0.01683026,-0.01683026,0.1963097,378.11851,290.53068)"><path
         d="m 283.9,136.9 10.9,119.9 -131.3,55 86.2,50.2 91.5,-54.8 89.6,-24.4 65.1,13.5 16.1,-66.1 c 0,0 -51.8,-57.5 -116.7,-80.3 -64.9,-22.8 -111.4,-13 -111.4,-13 z"
         fill="#95c751"
         id="path1-5" /><path
         d="M 341.2,307.2 C 273,335 145.4,459.5 204.8,637.1 264.2,814.7 376.3,888.6 412,894 c 35.7,5.4 87.6,-31.5 116.4,-31.5 28.8,0 53.8,34.7 89.5,32 35.7,-2.7 112.8,-32.5 149.7,-93 C 804.5,741 884.7,587.6 859.8,473.4 834.9,359.2 727.5,302.8 678.7,293.6 c -48.8,-9.2 -132.3,6.3 -156.2,5.6 -23.9,-0.7 -84.6,-15.3 -116.1,-8.5 -31.4,6.7 -65.2,16.5 -65.2,16.5 z"
         fill="#f75252"
         id="path2" /><path
         d="M 861.2,471.3 C 836.3,357.1 728.9,300.7 680.1,291.5 c -48.8,-9.2 -132.3,6.3 -156.2,5.6 -23.9,-0.7 -84.6,-15.3 -116.1,-8.5 -31.5,6.7 -65.2,16.5 -65.2,16.5 -68.2,27.7 -195.9,152.2 -136.4,329.9 59.5,177.7 171.5,251.4 207.1,256.9 35.7,5.4 87.6,-31.5 116.4,-31.5 28.8,0 53.8,34.7 89.5,32 35.8,-2.7 112.8,-32.5 149.7,-93 37,-60.5 117.2,-213.9 92.3,-328.1 z M 703,735 c -31.4,51.5 -96.8,76.7 -127.3,79.1 -30.4,2.3 -51.7,-27.2 -76.1,-27.2 -24.5,0 -68.7,31.4 -99,26.7 -30.3,-4.6 -125.5,-67.3 -176.1,-218.4 -50.6,-151.1 57.9,-257 115.9,-280.6 0,0 28.7,-8.3 55.5,-14 26.7,-5.7 78.4,6.6 98.7,7.3 20.3,0.6 91.3,-12.6 132.8,-4.8 41.5,7.8 132.8,55.8 154,152.9 21.2,97.1 -47.1,227.5 -78.4,279 z"
         fill="#ef3a3a"
         id="path3"
         style="stroke-width:3.1e-06;stroke-dasharray:none" /><path
         d="m 499.7,350.6 c 0,0 14.7,-115.5 27.3,-140.7 12.6,-25.2 23.1,-33.4 23.1,-33.4 l 69.1,4.1 8.9,26 c 0,0 -70.8,85.1 -81.3,105.2 -10.5,20.1 -13.8,44.5 -13.8,44.5 z"
         fill="#f2f5fb"
         id="path4-5"
         style="fill:#754630;fill-opacity:1" /><path
         d="m 819.9,371.3 c -50.2,-61.4 -127.1,-99.5 -200.6,-99.5 -11.9,0 -22.9,1.4 -33.4,3.5 25.7,-35.1 52.4,-62.2 52.9,-62.6 4.4,-4.4 5.3,-11.1 2.2,-16.5 0,0 -15.4,-31.3 -26.5,-31.3 l -76.2,-0.5 c -4.5,0 -8.8,2.2 -11.3,6 -8.4,12.3 -15.3,26 -21,40.1 -85.4,-92.9 -218.4,-94.1 -224.3,-94.1 -7.1,0 -13.1,5.5 -13.7,12.6 -0.3,3.7 -4.9,64.5 14.2,121 -31.8,6.6 -101.3,24.1 -133.4,55.2 -3,2.9 -4.5,6.9 -4.1,11 0.4,4.1 2.6,7.8 6,10.2 2.1,1.4 45.2,30.3 87,43.9 -0.3,0.3 -0.6,0.6 -0.8,1 -50.9,62.3 -70.1,140.8 -53.8,221.1 35.1,173.8 149.2,315.1 254.4,315.1 22.2,0 42.5,-6.8 60.4,-20.2 19.1,-14.3 41.9,-14.3 61,0 17.9,13.4 38.2,20.2 60.4,20.2 105.2,0 219.3,-141.4 254.4,-315.1 16.2,-80.3 -2.9,-158.8 -53.8,-221.1 z M 545.6,191.8 h 62.6 l 3.8,9.1 c -14.8,15.7 -48.5,53.5 -72.8,95.4 0,0.1 -0.1,0.1 -0.1,0.1 -0.2,0.4 -0.4,0.8 -0.7,1.2 -1.5,2.6 -2.9,5.1 -4.3,7.7 -0.7,1.2 -1.4,2.5 -2,3.7 -1.7,3.3 -3.3,6.6 -4.9,10 -0.2,0.4 -0.4,0.9 -0.6,1.3 -3.4,7.4 -6.4,14.8 -8.8,22.1 -3.4,-0.4 -6.8,-1 -10.1,-1.8 0.5,-10.1 1.5,-24.1 3.6,-40.2 v -0.2 c 4.6,-33.6 14.1,-75.7 34.3,-108.4 z M 294.8,144.5 c 35.8,2.9 136.5,17.6 198.9,93.7 0.6,0.8 1.5,1.2 2.2,1.8 -3.8,13.4 -6.7,26.8 -9,39.5 -9.1,-3.1 -18.9,-5.2 -29.2,-6.4 L 380,189.7 c -5.2,-5.6 -13.8,-5.8 -19.4,-0.7 -5.5,5.2 -5.8,13.8 -0.7,19.4 l 60,64.3 c -27.3,2.2 -54.7,9.4 -80.8,21 -41.3,-40.5 -44.7,-118.1 -44.3,-149.2 z m -1.7,131.3 c 3.3,6.4 6.8,12.7 11,18.7 l -55.2,3.4 c -7.6,0.5 -13.3,7 -12.8,14.5 0.5,7.3 6.5,12.8 13.7,12.8 h 0.9 l 37.9,-2.4 c -10.4,7.6 -20.4,15.9 -29.8,24.9 -26.6,-6 -57.8,-22.8 -76.4,-33.8 31,-19.4 82.5,-32.6 110.7,-38.1 z M 846.9,587 c -35.4,175.4 -146.3,293.2 -227.6,293.2 -16.3,0 -30.7,-4.8 -44,-14.7 -14.5,-10.8 -30.7,-16.2 -46.9,-16.2 -16.2,0 -32.4,5.4 -46.9,16.2 -13.2,9.9 -27.6,14.7 -44,14.7 -81.3,0 -192.2,-117.8 -227.6,-293.2 -14.6,-72.1 2.5,-142.5 48.2,-198.3 45.1,-55.2 113.9,-89.4 179.4,-89.4 17.4,0 32.4,2.5 45.5,7.7 0,0.3 -0.1,0.6 -0.1,1 -0.5,4.4 -0.9,8.7 -1.3,12.7 0,0.4 -0.1,0.7 -0.1,1.1 -0.2,2.6 -0.4,5.2 -0.6,7.6 -4.7,-3.3 -8.8,-7 -12.1,-11.2 -4.6,-6 -13.2,-7.1 -19.2,-2.5 -6,4.6 -7.1,13.2 -2.5,19.2 9.7,12.7 24.4,22.5 41.5,28.8 0.2,0.1 0.3,0.2 0.5,0.3 0.2,0.1 0.5,0.1 0.8,0.2 5.7,2 11.6,3.6 17.7,4.7 0.4,0.1 0.7,0.1 1.1,0.2 6.1,1.1 12.4,1.7 18.8,1.9 h 0.4 c 0.8,0 1.6,0.1 2.4,0.1 33.4,0 63.9,-12.7 81.5,-34 4.8,-5.8 4,-14.5 -1.8,-19.3 -5.8,-4.8 -14.5,-4 -19.3,1.8 -9.4,11.4 -25.3,19.4 -43.4,22.6 0.6,-1.6 1.2,-3.2 1.9,-4.9 1.1,-2.7 2.4,-5.4 3.7,-8.1 0.6,-1.3 1.2,-2.7 1.9,-4 1.5,-3 3.2,-6.2 5,-9.3 0.5,-0.8 0.9,-1.6 1.4,-2.5 15.7,-9.4 34.7,-13.9 58.1,-13.9 65.5,0 134.2,34.3 179.4,89.4 45.6,55.6 62.7,126 48.2,198.1 z"
         fill="#004364"
         id="path5"
         style="fill:#000000;fill-opacity:1;stroke-width:0.999849;stroke-dasharray:none" /><path
         d="m 700.2,388.3 m -15.8,0 a 15.8,15.8 0 1 0 31.6,0 15.8,15.8 0 1 0 -31.6,0 z"
         fill="#004364"
         id="path6-4" /><path
         d="m 757.3,431.7 m -15.8,0 a 15.8,15.8 0 1 0 31.6,0 15.8,15.8 0 1 0 -31.6,0 z"
         fill="#004364"
         id="path7" /><path
         d="m 688.2,457.6 m -15.8,0 a 15.8,15.8 0 1 0 31.6,0 15.8,15.8 0 1 0 -31.6,0 z"
         fill="#004364"
         id="path8-1" /><path
         d="m 427.8,824.4 m -15.8,0 a 15.8,15.8 0 1 0 31.6,0 15.8,15.8 0 1 0 -31.6,0 z"
         fill="#004364"
         id="path9-8" /><path
         d="m 357,787.8 m -15.8,0 a 15.8,15.8 0 1 0 31.6,0 15.8,15.8 0 1 0 -31.6,0 z"
         fill="#004364"
         id="path10-8" /></g><circle
       style="fill:#353535;fill-opacity:1;stroke:none;stroke-width:0.1;stroke-dasharray:none;stroke-opacity:1"
       id="path55"
       cx="603.79675"
       cy="492.77921"
       r="5.4807577" /></g></svg>
